<?xml version="1.0" encoding="utf-8" standalone="no"?>
<!DOCTYPE svg PUBLIC "-//W3C//DTD SVG 1.1//EN"
  "http://www.w3.org/Graphics/SVG/1.1/DTD/svg11.dtd">
<svg xmlns:xlink="http://www.w3.org/1999/xlink" width="720pt" height="720pt" viewBox="0 0 720 720" xmlns="http://www.w3.org/2000/svg" version="1.1">
 <metadata>
  <rdf:RDF xmlns:dc="http://purl.org/dc/elements/1.1/" xmlns:cc="http://creativecommons.org/ns#" xmlns:rdf="http://www.w3.org/1999/02/22-rdf-syntax-ns#">
   <cc:Work>
    <dc:type rdf:resource="http://purl.org/dc/dcmitype/StillImage"/>
    <dc:date>2024-12-19T12:47:09.064609</dc:date>
    <dc:format>image/svg+xml</dc:format>
    <dc:creator>
     <cc:Agent>
      <dc:title>Matplotlib v3.9.2, https://matplotlib.org/</dc:title>
     </cc:Agent>
    </dc:creator>
   </cc:Work>
  </rdf:RDF>
 </metadata>
 <defs>
  <style type="text/css">*{stroke-linejoin: round; stroke-linecap: butt}</style>
 </defs>
 <g id="figure_1">
  <g id="patch_1">
   <path d="M 0 720 
L 720 720 
L 720 0 
L 0 0 
L 0 720 
z
" style="fill: none"/>
  </g>
  <g id="axes_1">
   <g id="patch_2">
    <path d="M 547.36 370.24 
C 547.36 338.648155 541.137095 307.363501 529.04742 278.176442 
C 516.957744 248.989383 499.236411 222.467534 476.897603 200.128726 
C 454.558795 177.789918 428.036946 160.068585 398.849887 147.978909 
C 369.662828 135.889233 338.378174 129.666329 306.786329 129.666329 
C 275.194484 129.666329 243.90983 135.889233 214.722771 147.978909 
C 185.535711 160.068585 159.013862 177.789918 136.675054 200.128726 
C 114.336247 222.467534 96.614914 248.989383 84.525238 278.176442 
C 72.435562 307.363501 66.212658 338.648155 66.212658 370.24 
C 66.212658 401.831845 72.435562 433.116499 84.525238 462.303558 
C 96.614914 491.490617 114.336247 518.012466 136.675054 540.351274 
C 159.013862 562.690082 185.535711 580.411415 214.722771 592.501091 
C 243.90983 604.590767 275.194484 610.813671 306.786329 610.813671 
C 338.378174 610.813671 369.662828 604.590767 398.849887 592.501091 
C 428.036946 580.411415 454.558795 562.690082 476.897603 540.351274 
C 499.236411 518.012466 516.957744 491.490617 529.04742 462.303558 
C 541.137095 433.116499 547.36 401.831845 547.36 370.24 
M 306.786329 370.24 
C 306.786329 370.24 306.786329 370.24 306.786329 370.24 
C 306.786329 370.24 306.786329 370.24 306.786329 370.24 
C 306.786329 370.24 306.786329 370.24 306.786329 370.24 
C 306.786329 370.24 306.786329 370.24 306.786329 370.24 
C 306.786329 370.24 306.786329 370.24 306.786329 370.24 
C 306.786329 370.24 306.786329 370.24 306.786329 370.24 
C 306.786329 370.24 306.786329 370.24 306.786329 370.24 
C 306.786329 370.24 306.786329 370.24 306.786329 370.24 
C 306.786329 370.24 306.786329 370.24 306.786329 370.24 
C 306.786329 370.24 306.786329 370.24 306.786329 370.24 
C 306.786329 370.24 306.786329 370.24 306.786329 370.24 
C 306.786329 370.24 306.786329 370.24 306.786329 370.24 
C 306.786329 370.24 306.786329 370.24 306.786329 370.24 
C 306.786329 370.24 306.786329 370.24 306.786329 370.24 
C 306.786329 370.24 306.786329 370.24 306.786329 370.24 
C 306.786329 370.24 306.786329 370.24 306.786329 370.24 
L 306.786329 370.24 
z
" style="fill: none"/>
   </g>
   <g id="matplotlib.axis_1">
    <g id="xtick_1">
     <g id="line2d_1">
      <path d="M 306.786329 370.24 
L 306.786329 129.666329 
" clip-path="url(#p7ace6529b2)" style="fill: none; stroke: #cccccc; stroke-width: 0.8; stroke-linecap: round"/>
     </g>
     <g id="text_1">
      <!-- obytné územie -->
      <g style="fill: #262626" transform="translate(261.262266 119.23086) scale(0.14 -0.14)">
       <defs>
        <path id="ArialMT-6f" d="M 213 1659 
Q 213 2581 725 3025 
Q 1153 3394 1769 3394 
Q 2453 3394 2887 2945 
Q 3322 2497 3322 1706 
Q 3322 1066 3130 698 
Q 2938 331 2570 128 
Q 2203 -75 1769 -75 
Q 1072 -75 642 372 
Q 213 819 213 1659 
z
M 791 1659 
Q 791 1022 1069 705 
Q 1347 388 1769 388 
Q 2188 388 2466 706 
Q 2744 1025 2744 1678 
Q 2744 2294 2464 2611 
Q 2184 2928 1769 2928 
Q 1347 2928 1069 2612 
Q 791 2297 791 1659 
z
" transform="scale(0.015625)"/>
        <path id="ArialMT-62" d="M 941 0 
L 419 0 
L 419 4581 
L 981 4581 
L 981 2947 
Q 1338 3394 1891 3394 
Q 2197 3394 2470 3270 
Q 2744 3147 2920 2923 
Q 3097 2700 3197 2384 
Q 3297 2069 3297 1709 
Q 3297 856 2875 390 
Q 2453 -75 1863 -75 
Q 1275 -75 941 416 
L 941 0 
z
M 934 1684 
Q 934 1088 1097 822 
Q 1363 388 1816 388 
Q 2184 388 2453 708 
Q 2722 1028 2722 1663 
Q 2722 2313 2464 2622 
Q 2206 2931 1841 2931 
Q 1472 2931 1203 2611 
Q 934 2291 934 1684 
z
" transform="scale(0.015625)"/>
        <path id="ArialMT-79" d="M 397 -1278 
L 334 -750 
Q 519 -800 656 -800 
Q 844 -800 956 -737 
Q 1069 -675 1141 -563 
Q 1194 -478 1313 -144 
Q 1328 -97 1363 -6 
L 103 3319 
L 709 3319 
L 1400 1397 
Q 1534 1031 1641 628 
Q 1738 1016 1872 1384 
L 2581 3319 
L 3144 3319 
L 1881 -56 
Q 1678 -603 1566 -809 
Q 1416 -1088 1222 -1217 
Q 1028 -1347 759 -1347 
Q 597 -1347 397 -1278 
z
" transform="scale(0.015625)"/>
        <path id="ArialMT-74" d="M 1650 503 
L 1731 6 
Q 1494 -44 1306 -44 
Q 1000 -44 831 53 
Q 663 150 594 308 
Q 525 466 525 972 
L 525 2881 
L 113 2881 
L 113 3319 
L 525 3319 
L 525 4141 
L 1084 4478 
L 1084 3319 
L 1650 3319 
L 1650 2881 
L 1084 2881 
L 1084 941 
Q 1084 700 1114 631 
Q 1144 563 1211 522 
Q 1278 481 1403 481 
Q 1497 481 1650 503 
z
" transform="scale(0.015625)"/>
        <path id="ArialMT-6e" d="M 422 0 
L 422 3319 
L 928 3319 
L 928 2847 
Q 1294 3394 1984 3394 
Q 2284 3394 2536 3286 
Q 2788 3178 2913 3003 
Q 3038 2828 3088 2588 
Q 3119 2431 3119 2041 
L 3119 0 
L 2556 0 
L 2556 2019 
Q 2556 2363 2490 2533 
Q 2425 2703 2258 2804 
Q 2091 2906 1866 2906 
Q 1506 2906 1245 2678 
Q 984 2450 984 1813 
L 984 0 
L 422 0 
z
" transform="scale(0.015625)"/>
        <path id="ArialMT-e9" d="M 2694 1069 
L 3275 997 
Q 3138 488 2766 206 
Q 2394 -75 1816 -75 
Q 1088 -75 661 373 
Q 234 822 234 1631 
Q 234 2469 665 2931 
Q 1097 3394 1784 3394 
Q 2450 3394 2872 2941 
Q 3294 2488 3294 1666 
Q 3294 1616 3291 1516 
L 816 1516 
Q 847 969 1125 678 
Q 1403 388 1819 388 
Q 2128 388 2347 550 
Q 2566 713 2694 1069 
z
M 847 1978 
L 2700 1978 
Q 2663 2397 2488 2606 
Q 2219 2931 1791 2931 
Q 1403 2931 1139 2672 
Q 875 2413 847 1978 
z
M 1453 3731 
L 1869 4606 
L 2606 4606 
L 1919 3731 
L 1453 3731 
z
" transform="scale(0.015625)"/>
        <path id="ArialMT-20" transform="scale(0.015625)"/>
        <path id="ArialMT-fa" d="M 2597 0 
L 2597 488 
Q 2209 -75 1544 -75 
Q 1250 -75 995 37 
Q 741 150 617 320 
Q 494 491 444 738 
Q 409 903 409 1263 
L 409 3319 
L 972 3319 
L 972 1478 
Q 972 1038 1006 884 
Q 1059 663 1231 536 
Q 1403 409 1656 409 
Q 1909 409 2131 539 
Q 2353 669 2445 892 
Q 2538 1116 2538 1541 
L 2538 3319 
L 3100 3319 
L 3100 0 
L 2597 0 
z
M 1416 3731 
L 1831 4606 
L 2569 4606 
L 1881 3731 
L 1416 3731 
z
" transform="scale(0.015625)"/>
        <path id="ArialMT-7a" d="M 125 0 
L 125 456 
L 2238 2881 
Q 1878 2863 1603 2863 
L 250 2863 
L 250 3319 
L 2963 3319 
L 2963 2947 
L 1166 841 
L 819 456 
Q 1197 484 1528 484 
L 3063 484 
L 3063 0 
L 125 0 
z
" transform="scale(0.015625)"/>
        <path id="ArialMT-65" d="M 2694 1069 
L 3275 997 
Q 3138 488 2766 206 
Q 2394 -75 1816 -75 
Q 1088 -75 661 373 
Q 234 822 234 1631 
Q 234 2469 665 2931 
Q 1097 3394 1784 3394 
Q 2450 3394 2872 2941 
Q 3294 2488 3294 1666 
Q 3294 1616 3291 1516 
L 816 1516 
Q 847 969 1125 678 
Q 1403 388 1819 388 
Q 2128 388 2347 550 
Q 2566 713 2694 1069 
z
M 847 1978 
L 2700 1978 
Q 2663 2397 2488 2606 
Q 2219 2931 1791 2931 
Q 1403 2931 1139 2672 
Q 875 2413 847 1978 
z
" transform="scale(0.015625)"/>
        <path id="ArialMT-6d" d="M 422 0 
L 422 3319 
L 925 3319 
L 925 2853 
Q 1081 3097 1340 3245 
Q 1600 3394 1931 3394 
Q 2300 3394 2536 3241 
Q 2772 3088 2869 2813 
Q 3263 3394 3894 3394 
Q 4388 3394 4653 3120 
Q 4919 2847 4919 2278 
L 4919 0 
L 4359 0 
L 4359 2091 
Q 4359 2428 4304 2576 
Q 4250 2725 4106 2815 
Q 3963 2906 3769 2906 
Q 3419 2906 3187 2673 
Q 2956 2441 2956 1928 
L 2956 0 
L 2394 0 
L 2394 2156 
Q 2394 2531 2256 2718 
Q 2119 2906 1806 2906 
Q 1569 2906 1367 2781 
Q 1166 2656 1075 2415 
Q 984 2175 984 1722 
L 984 0 
L 422 0 
z
" transform="scale(0.015625)"/>
        <path id="ArialMT-69" d="M 425 3934 
L 425 4581 
L 988 4581 
L 988 3934 
L 425 3934 
z
M 425 0 
L 425 3319 
L 988 3319 
L 988 0 
L 425 0 
z
" transform="scale(0.015625)"/>
       </defs>
       <use xlink:href="#ArialMT-6f"/>
       <use xlink:href="#ArialMT-62" x="55.615234"/>
       <use xlink:href="#ArialMT-79" x="111.230469"/>
       <use xlink:href="#ArialMT-74" x="161.230469"/>
       <use xlink:href="#ArialMT-6e" x="189.013672"/>
       <use xlink:href="#ArialMT-e9" x="244.628906"/>
       <use xlink:href="#ArialMT-20" x="300.244141"/>
       <use xlink:href="#ArialMT-fa" x="328.027344"/>
       <use xlink:href="#ArialMT-7a" x="383.642578"/>
       <use xlink:href="#ArialMT-65" x="433.642578"/>
       <use xlink:href="#ArialMT-6d" x="489.257812"/>
       <use xlink:href="#ArialMT-69" x="572.558594"/>
       <use xlink:href="#ArialMT-65" x="594.775391"/>
      </g>
     </g>
    </g>
    <g id="xtick_2">
     <g id="line2d_2">
      <path d="M 306.786329 370.24 
L 535.585486 295.898647 
" clip-path="url(#p7ace6529b2)" style="fill: none; stroke: #cccccc; stroke-width: 0.8; stroke-linecap: round"/>
     </g>
     <g id="text_2">
      <!-- územie občianskej vybavenosti -->
      <g style="fill: #262626" transform="translate(452.409653 295.136941) scale(0.14 -0.14)">
       <defs>
        <path id="ArialMT-10d" d="M 2588 1216 
L 3141 1144 
Q 3050 572 2676 248 
Q 2303 -75 1759 -75 
Q 1078 -75 664 370 
Q 250 816 250 1647 
Q 250 2184 428 2587 
Q 606 2991 970 3192 
Q 1334 3394 1763 3394 
Q 2303 3394 2647 3120 
Q 2991 2847 3088 2344 
L 2541 2259 
Q 2463 2594 2264 2762 
Q 2066 2931 1784 2931 
Q 1359 2931 1093 2626 
Q 828 2322 828 1663 
Q 828 994 1084 691 
Q 1341 388 1753 388 
Q 2084 388 2306 591 
Q 2528 794 2588 1216 
z
M 1753 4075 
L 2097 4606 
L 2734 4606 
L 2031 3731 
L 1431 3731 
L 756 4606 
L 1400 4606 
L 1753 4075 
z
" transform="scale(0.015625)"/>
        <path id="ArialMT-61" d="M 2588 409 
Q 2275 144 1986 34 
Q 1697 -75 1366 -75 
Q 819 -75 525 192 
Q 231 459 231 875 
Q 231 1119 342 1320 
Q 453 1522 633 1644 
Q 813 1766 1038 1828 
Q 1203 1872 1538 1913 
Q 2219 1994 2541 2106 
Q 2544 2222 2544 2253 
Q 2544 2597 2384 2738 
Q 2169 2928 1744 2928 
Q 1347 2928 1158 2789 
Q 969 2650 878 2297 
L 328 2372 
Q 403 2725 575 2942 
Q 747 3159 1072 3276 
Q 1397 3394 1825 3394 
Q 2250 3394 2515 3294 
Q 2781 3194 2906 3042 
Q 3031 2891 3081 2659 
Q 3109 2516 3109 2141 
L 3109 1391 
Q 3109 606 3145 398 
Q 3181 191 3288 0 
L 2700 0 
Q 2613 175 2588 409 
z
M 2541 1666 
Q 2234 1541 1622 1453 
Q 1275 1403 1131 1340 
Q 988 1278 909 1158 
Q 831 1038 831 891 
Q 831 666 1001 516 
Q 1172 366 1500 366 
Q 1825 366 2078 508 
Q 2331 650 2450 897 
Q 2541 1088 2541 1459 
L 2541 1666 
z
" transform="scale(0.015625)"/>
        <path id="ArialMT-73" d="M 197 991 
L 753 1078 
Q 800 744 1014 566 
Q 1228 388 1613 388 
Q 2000 388 2187 545 
Q 2375 703 2375 916 
Q 2375 1106 2209 1216 
Q 2094 1291 1634 1406 
Q 1016 1563 777 1677 
Q 538 1791 414 1992 
Q 291 2194 291 2438 
Q 291 2659 392 2848 
Q 494 3038 669 3163 
Q 800 3259 1026 3326 
Q 1253 3394 1513 3394 
Q 1903 3394 2198 3281 
Q 2494 3169 2634 2976 
Q 2775 2784 2828 2463 
L 2278 2388 
Q 2241 2644 2061 2787 
Q 1881 2931 1553 2931 
Q 1166 2931 1000 2803 
Q 834 2675 834 2503 
Q 834 2394 903 2306 
Q 972 2216 1119 2156 
Q 1203 2125 1616 2013 
Q 2213 1853 2448 1751 
Q 2684 1650 2818 1456 
Q 2953 1263 2953 975 
Q 2953 694 2789 445 
Q 2625 197 2315 61 
Q 2006 -75 1616 -75 
Q 969 -75 630 194 
Q 291 463 197 991 
z
" transform="scale(0.015625)"/>
        <path id="ArialMT-6b" d="M 425 0 
L 425 4581 
L 988 4581 
L 988 1969 
L 2319 3319 
L 3047 3319 
L 1778 2088 
L 3175 0 
L 2481 0 
L 1384 1697 
L 988 1316 
L 988 0 
L 425 0 
z
" transform="scale(0.015625)"/>
        <path id="ArialMT-6a" d="M 419 3928 
L 419 4581 
L 981 4581 
L 981 3928 
L 419 3928 
z
M -294 -1288 
L -188 -809 
Q -19 -853 78 -853 
Q 250 -853 334 -739 
Q 419 -625 419 -169 
L 419 3319 
L 981 3319 
L 981 -181 
Q 981 -794 822 -1034 
Q 619 -1347 147 -1347 
Q -81 -1347 -294 -1288 
z
" transform="scale(0.015625)"/>
        <path id="ArialMT-76" d="M 1344 0 
L 81 3319 
L 675 3319 
L 1388 1331 
Q 1503 1009 1600 663 
Q 1675 925 1809 1294 
L 2547 3319 
L 3125 3319 
L 1869 0 
L 1344 0 
z
" transform="scale(0.015625)"/>
       </defs>
       <use xlink:href="#ArialMT-fa"/>
       <use xlink:href="#ArialMT-7a" x="55.615234"/>
       <use xlink:href="#ArialMT-65" x="105.615234"/>
       <use xlink:href="#ArialMT-6d" x="161.230469"/>
       <use xlink:href="#ArialMT-69" x="244.53125"/>
       <use xlink:href="#ArialMT-65" x="266.748047"/>
       <use xlink:href="#ArialMT-20" x="322.363281"/>
       <use xlink:href="#ArialMT-6f" x="350.146484"/>
       <use xlink:href="#ArialMT-62" x="405.761719"/>
       <use xlink:href="#ArialMT-10d" x="461.376953"/>
       <use xlink:href="#ArialMT-69" x="511.376953"/>
       <use xlink:href="#ArialMT-61" x="533.59375"/>
       <use xlink:href="#ArialMT-6e" x="589.208984"/>
       <use xlink:href="#ArialMT-73" x="644.824219"/>
       <use xlink:href="#ArialMT-6b" x="694.824219"/>
       <use xlink:href="#ArialMT-65" x="744.824219"/>
       <use xlink:href="#ArialMT-6a" x="800.439453"/>
       <use xlink:href="#ArialMT-20" x="822.65625"/>
       <use xlink:href="#ArialMT-76" x="850.439453"/>
       <use xlink:href="#ArialMT-79" x="900.439453"/>
       <use xlink:href="#ArialMT-62" x="950.439453"/>
       <use xlink:href="#ArialMT-61" x="1006.054688"/>
       <use xlink:href="#ArialMT-76" x="1061.669922"/>
       <use xlink:href="#ArialMT-65" x="1111.669922"/>
       <use xlink:href="#ArialMT-6e" x="1167.285156"/>
       <use xlink:href="#ArialMT-6f" x="1222.900391"/>
       <use xlink:href="#ArialMT-73" x="1278.515625"/>
       <use xlink:href="#ArialMT-74" x="1328.515625"/>
       <use xlink:href="#ArialMT-69" x="1356.298828"/>
      </g>
     </g>
    </g>
    <g id="xtick_3">
     <g id="line2d_3">
      <path d="M 306.786329 370.24 
L 448.191985 564.868188 
" clip-path="url(#p7ace6529b2)" style="fill: none; stroke: #cccccc; stroke-width: 0.8; stroke-linecap: round"/>
     </g>
     <g id="text_3">
      <!-- územie výroby -->
      <g style="fill: #262626" transform="translate(411.296135 579.758958) scale(0.14 -0.14)">
       <defs>
        <path id="ArialMT-fd" d="M 397 -1278 
L 334 -750 
Q 519 -800 656 -800 
Q 844 -800 956 -737 
Q 1069 -675 1141 -563 
Q 1194 -478 1313 -144 
Q 1328 -97 1363 -6 
L 103 3319 
L 709 3319 
L 1400 1397 
Q 1534 1031 1641 628 
Q 1738 1016 1872 1384 
L 2581 3319 
L 3144 3319 
L 1881 -56 
Q 1678 -603 1566 -809 
Q 1416 -1088 1222 -1217 
Q 1028 -1347 759 -1347 
Q 597 -1347 397 -1278 
z
M 1313 3731 
L 1728 4606 
L 2466 4606 
L 1778 3731 
L 1313 3731 
z
" transform="scale(0.015625)"/>
        <path id="ArialMT-72" d="M 416 0 
L 416 3319 
L 922 3319 
L 922 2816 
Q 1116 3169 1280 3281 
Q 1444 3394 1641 3394 
Q 1925 3394 2219 3213 
L 2025 2691 
Q 1819 2813 1613 2813 
Q 1428 2813 1281 2702 
Q 1134 2591 1072 2394 
Q 978 2094 978 1738 
L 978 0 
L 416 0 
z
" transform="scale(0.015625)"/>
       </defs>
       <use xlink:href="#ArialMT-fa"/>
       <use xlink:href="#ArialMT-7a" x="55.615234"/>
       <use xlink:href="#ArialMT-65" x="105.615234"/>
       <use xlink:href="#ArialMT-6d" x="161.230469"/>
       <use xlink:href="#ArialMT-69" x="244.53125"/>
       <use xlink:href="#ArialMT-65" x="266.748047"/>
       <use xlink:href="#ArialMT-20" x="322.363281"/>
       <use xlink:href="#ArialMT-76" x="350.146484"/>
       <use xlink:href="#ArialMT-fd" x="400.146484"/>
       <use xlink:href="#ArialMT-72" x="450.146484"/>
       <use xlink:href="#ArialMT-6f" x="483.447266"/>
       <use xlink:href="#ArialMT-62" x="539.0625"/>
       <use xlink:href="#ArialMT-79" x="594.677734"/>
      </g>
     </g>
    </g>
    <g id="xtick_4">
     <g id="line2d_4">
      <path d="M 306.786329 370.24 
L 165.380673 564.868188 
" clip-path="url(#p7ace6529b2)" style="fill: none; stroke: #cccccc; stroke-width: 0.8; stroke-linecap: round"/>
     </g>
     <g id="text_4">
      <!-- mestská a krajiná zeleň -->
      <g style="fill: #262626" transform="translate(84.011523 579.758958) scale(0.14 -0.14)">
       <defs>
        <path id="ArialMT-e1" d="M 2588 409 
Q 2275 144 1986 34 
Q 1697 -75 1366 -75 
Q 819 -75 525 192 
Q 231 459 231 875 
Q 231 1119 342 1320 
Q 453 1522 633 1644 
Q 813 1766 1038 1828 
Q 1203 1872 1538 1913 
Q 2219 1994 2541 2106 
Q 2544 2222 2544 2253 
Q 2544 2597 2384 2738 
Q 2169 2928 1744 2928 
Q 1347 2928 1158 2789 
Q 969 2650 878 2297 
L 328 2372 
Q 403 2725 575 2942 
Q 747 3159 1072 3276 
Q 1397 3394 1825 3394 
Q 2250 3394 2515 3294 
Q 2781 3194 2906 3042 
Q 3031 2891 3081 2659 
Q 3109 2516 3109 2141 
L 3109 1391 
Q 3109 606 3145 398 
Q 3181 191 3288 0 
L 2700 0 
Q 2613 175 2588 409 
z
M 2541 1666 
Q 2234 1541 1622 1453 
Q 1275 1403 1131 1340 
Q 988 1278 909 1158 
Q 831 1038 831 891 
Q 831 666 1001 516 
Q 1172 366 1500 366 
Q 1825 366 2078 508 
Q 2331 650 2450 897 
Q 2541 1088 2541 1459 
L 2541 1666 
z
M 1447 3731 
L 1863 4606 
L 2600 4606 
L 1913 3731 
L 1447 3731 
z
" transform="scale(0.015625)"/>
        <path id="ArialMT-6c" d="M 409 0 
L 409 4581 
L 972 4581 
L 972 0 
L 409 0 
z
" transform="scale(0.015625)"/>
        <path id="ArialMT-148" d="M 422 0 
L 422 3319 
L 928 3319 
L 928 2847 
Q 1294 3394 1984 3394 
Q 2284 3394 2536 3286 
Q 2788 3178 2913 3003 
Q 3038 2828 3088 2588 
Q 3119 2431 3119 2041 
L 3119 0 
L 2556 0 
L 2556 2019 
Q 2556 2363 2490 2533 
Q 2425 2703 2258 2804 
Q 2091 2906 1866 2906 
Q 1506 2906 1245 2678 
Q 984 2450 984 1813 
L 984 0 
L 422 0 
z
M 1828 4075 
L 2172 4606 
L 2809 4606 
L 2106 3731 
L 1506 3731 
L 831 4606 
L 1475 4606 
L 1828 4075 
z
" transform="scale(0.015625)"/>
       </defs>
       <use xlink:href="#ArialMT-6d"/>
       <use xlink:href="#ArialMT-65" x="83.300781"/>
       <use xlink:href="#ArialMT-73" x="138.916016"/>
       <use xlink:href="#ArialMT-74" x="188.916016"/>
       <use xlink:href="#ArialMT-73" x="216.699219"/>
       <use xlink:href="#ArialMT-6b" x="266.699219"/>
       <use xlink:href="#ArialMT-e1" x="316.699219"/>
       <use xlink:href="#ArialMT-20" x="372.314453"/>
       <use xlink:href="#ArialMT-61" x="400.097656"/>
       <use xlink:href="#ArialMT-20" x="455.712891"/>
       <use xlink:href="#ArialMT-6b" x="483.496094"/>
       <use xlink:href="#ArialMT-72" x="533.496094"/>
       <use xlink:href="#ArialMT-61" x="566.796875"/>
       <use xlink:href="#ArialMT-6a" x="622.412109"/>
       <use xlink:href="#ArialMT-69" x="644.628906"/>
       <use xlink:href="#ArialMT-6e" x="666.845703"/>
       <use xlink:href="#ArialMT-e1" x="722.460938"/>
       <use xlink:href="#ArialMT-20" x="778.076172"/>
       <use xlink:href="#ArialMT-7a" x="805.859375"/>
       <use xlink:href="#ArialMT-65" x="855.859375"/>
       <use xlink:href="#ArialMT-6c" x="911.474609"/>
       <use xlink:href="#ArialMT-65" x="933.691406"/>
       <use xlink:href="#ArialMT-148" x="989.306641"/>
      </g>
     </g>
    </g>
    <g id="xtick_5">
     <g id="line2d_5">
      <path d="M 306.786329 370.24 
L 77.987171 295.898647 
" clip-path="url(#p7ace6529b2)" style="fill: none; stroke: #cccccc; stroke-width: 0.8; stroke-linecap: round"/>
     </g>
     <g id="text_5">
      <!-- voľný čas a šport -->
      <g style="fill: #262626" transform="translate(11.665974 295.136941) scale(0.14 -0.14)">
       <defs>
        <path id="ArialMT-13e" d="M 1288 4003 
L 1288 4581 
L 1863 4581 
L 1863 4003 
Q 1863 3688 1750 3492 
Q 1638 3297 1394 3191 
L 1253 3403 
Q 1413 3475 1489 3611 
Q 1566 3747 1572 4003 
L 1288 4003 
z
M 425 0 
L 425 4581 
L 988 4581 
L 988 0 
L 425 0 
z
" transform="scale(0.015625)"/>
        <path id="ArialMT-161" d="M 197 991 
L 753 1078 
Q 800 744 1014 566 
Q 1228 388 1613 388 
Q 2000 388 2187 545 
Q 2375 703 2375 916 
Q 2375 1106 2209 1216 
Q 2094 1291 1634 1406 
Q 1016 1563 777 1677 
Q 538 1791 414 1992 
Q 291 2194 291 2438 
Q 291 2659 392 2848 
Q 494 3038 669 3163 
Q 800 3259 1026 3326 
Q 1253 3394 1513 3394 
Q 1903 3394 2198 3281 
Q 2494 3169 2634 2976 
Q 2775 2784 2828 2463 
L 2278 2388 
Q 2241 2644 2061 2787 
Q 1881 2931 1553 2931 
Q 1166 2931 1000 2803 
Q 834 2675 834 2503 
Q 834 2394 903 2306 
Q 972 2216 1119 2156 
Q 1203 2125 1616 2013 
Q 2213 1853 2448 1751 
Q 2684 1650 2818 1456 
Q 2953 1263 2953 975 
Q 2953 694 2789 445 
Q 2625 197 2315 61 
Q 2006 -75 1616 -75 
Q 969 -75 630 194 
Q 291 463 197 991 
z
M 1584 4075 
L 1928 4606 
L 2566 4606 
L 1863 3731 
L 1263 3731 
L 588 4606 
L 1231 4606 
L 1584 4075 
z
" transform="scale(0.015625)"/>
        <path id="ArialMT-70" d="M 422 -1272 
L 422 3319 
L 934 3319 
L 934 2888 
Q 1116 3141 1344 3267 
Q 1572 3394 1897 3394 
Q 2322 3394 2647 3175 
Q 2972 2956 3137 2557 
Q 3303 2159 3303 1684 
Q 3303 1175 3120 767 
Q 2938 359 2589 142 
Q 2241 -75 1856 -75 
Q 1575 -75 1351 44 
Q 1128 163 984 344 
L 984 -1272 
L 422 -1272 
z
M 931 1641 
Q 931 1000 1190 694 
Q 1450 388 1819 388 
Q 2194 388 2461 705 
Q 2728 1022 2728 1688 
Q 2728 2322 2467 2637 
Q 2206 2953 1844 2953 
Q 1484 2953 1207 2617 
Q 931 2281 931 1641 
z
" transform="scale(0.015625)"/>
       </defs>
       <use xlink:href="#ArialMT-76"/>
       <use xlink:href="#ArialMT-6f" x="50"/>
       <use xlink:href="#ArialMT-13e" x="105.615234"/>
       <use xlink:href="#ArialMT-6e" x="134.765625"/>
       <use xlink:href="#ArialMT-fd" x="190.380859"/>
       <use xlink:href="#ArialMT-20" x="240.380859"/>
       <use xlink:href="#ArialMT-10d" x="268.164062"/>
       <use xlink:href="#ArialMT-61" x="318.164062"/>
       <use xlink:href="#ArialMT-73" x="373.779297"/>
       <use xlink:href="#ArialMT-20" x="423.779297"/>
       <use xlink:href="#ArialMT-61" x="451.5625"/>
       <use xlink:href="#ArialMT-20" x="507.177734"/>
       <use xlink:href="#ArialMT-161" x="534.960938"/>
       <use xlink:href="#ArialMT-70" x="584.960938"/>
       <use xlink:href="#ArialMT-6f" x="640.576172"/>
       <use xlink:href="#ArialMT-72" x="696.191406"/>
       <use xlink:href="#ArialMT-74" x="729.492188"/>
      </g>
     </g>
    </g>
   </g>
   <g id="matplotlib.axis_2">
    <g id="ytick_1">
     <g id="line2d_6">
      <path d="M 306.786329 322.125266 
C 313.104698 322.125266 319.361629 323.369847 325.19904 325.787782 
C 331.036452 328.205717 336.340822 331.749984 340.808584 336.217745 
C 345.276345 340.685507 348.820612 345.989877 351.238547 351.827288 
C 353.656482 357.6647 354.901063 363.921631 354.901063 370.24 
C 354.901063 376.558369 353.656482 382.8153 351.238547 388.652712 
C 348.820612 394.490123 345.276345 399.794493 340.808584 404.262255 
C 336.340822 408.730016 331.036452 412.274283 325.19904 414.692218 
C 319.361629 417.110153 313.104698 418.354734 306.786329 418.354734 
C 300.46796 418.354734 294.211029 417.110153 288.373617 414.692218 
C 282.536205 412.274283 277.231835 408.730016 272.764074 404.262255 
C 268.296312 399.794493 264.752046 394.490123 262.334111 388.652712 
C 259.916175 382.8153 258.671595 376.558369 258.671595 370.24 
C 258.671595 363.921631 259.916175 357.6647 262.334111 351.827288 
C 264.752046 345.989877 268.296312 340.685507 272.764074 336.217745 
C 277.231835 331.749984 282.536205 328.205717 288.373617 325.787782 
C 294.211029 323.369847 300.46796 322.125266 306.786329 322.125266 
" clip-path="url(#p7ace6529b2)" style="fill: none; stroke: #cccccc; stroke-width: 0.8; stroke-linecap: round"/>
     </g>
     <g id="text_6">
      <!-- 1000 -->
      <g transform="translate(340.808584 333.832745) scale(0.12 -0.12)">
       <defs>
        <path id="ArialMT-31" d="M 2384 0 
L 1822 0 
L 1822 3584 
Q 1619 3391 1289 3197 
Q 959 3003 697 2906 
L 697 3450 
Q 1169 3672 1522 3987 
Q 1875 4303 2022 4600 
L 2384 4600 
L 2384 0 
z
" transform="scale(0.015625)"/>
        <path id="ArialMT-30" d="M 266 2259 
Q 266 3072 433 3567 
Q 600 4063 929 4331 
Q 1259 4600 1759 4600 
Q 2128 4600 2406 4451 
Q 2684 4303 2865 4023 
Q 3047 3744 3150 3342 
Q 3253 2941 3253 2259 
Q 3253 1453 3087 958 
Q 2922 463 2592 192 
Q 2263 -78 1759 -78 
Q 1097 -78 719 397 
Q 266 969 266 2259 
z
M 844 2259 
Q 844 1131 1108 757 
Q 1372 384 1759 384 
Q 2147 384 2411 759 
Q 2675 1134 2675 2259 
Q 2675 3391 2411 3762 
Q 2147 4134 1753 4134 
Q 1366 4134 1134 3806 
Q 844 3388 844 2259 
z
" transform="scale(0.015625)"/>
       </defs>
       <use xlink:href="#ArialMT-31"/>
       <use xlink:href="#ArialMT-30" x="55.615234"/>
       <use xlink:href="#ArialMT-30" x="111.230469"/>
       <use xlink:href="#ArialMT-30" x="166.845703"/>
      </g>
     </g>
    </g>
    <g id="ytick_2">
     <g id="line2d_7">
      <path d="M 306.786329 274.010532 
C 319.423067 274.010532 331.936928 276.499693 343.611752 281.335564 
C 355.286576 286.171434 365.895315 293.259967 374.830838 302.19549 
C 383.766362 311.131013 390.854895 321.739753 395.690765 333.414577 
C 400.526635 345.0894 403.015797 357.603262 403.015797 370.24 
C 403.015797 382.876738 400.526635 395.3906 395.690765 407.065423 
C 390.854895 418.740247 383.766362 429.348987 374.830838 438.28451 
C 365.895315 447.220033 355.286576 454.308566 343.611752 459.144436 
C 331.936928 463.980307 319.423067 466.469468 306.786329 466.469468 
C 294.149591 466.469468 281.635729 463.980307 269.960905 459.144436 
C 258.286082 454.308566 247.677342 447.220033 238.741819 438.28451 
C 229.806296 429.348987 222.717763 418.740247 217.881892 407.065423 
C 213.046022 395.3906 210.55686 382.876738 210.55686 370.24 
C 210.55686 357.603262 213.046022 345.0894 217.881892 333.414577 
C 222.717763 321.739753 229.806296 311.131013 238.741819 302.19549 
C 247.677342 293.259967 258.286082 286.171434 269.960905 281.335564 
C 281.635729 276.499693 294.149591 274.010532 306.786329 274.010532 
" clip-path="url(#p7ace6529b2)" style="fill: none; stroke: #cccccc; stroke-width: 0.8; stroke-linecap: round"/>
     </g>
     <g id="text_7">
      <!-- 2000 -->
      <g transform="translate(374.830838 299.81049) scale(0.12 -0.12)">
       <defs>
        <path id="ArialMT-32" d="M 3222 541 
L 3222 0 
L 194 0 
Q 188 203 259 391 
Q 375 700 629 1000 
Q 884 1300 1366 1694 
Q 2113 2306 2375 2664 
Q 2638 3022 2638 3341 
Q 2638 3675 2398 3904 
Q 2159 4134 1775 4134 
Q 1369 4134 1125 3890 
Q 881 3647 878 3216 
L 300 3275 
Q 359 3922 746 4261 
Q 1134 4600 1788 4600 
Q 2447 4600 2831 4234 
Q 3216 3869 3216 3328 
Q 3216 3053 3103 2787 
Q 2991 2522 2730 2228 
Q 2469 1934 1863 1422 
Q 1356 997 1212 845 
Q 1069 694 975 541 
L 3222 541 
z
" transform="scale(0.015625)"/>
       </defs>
       <use xlink:href="#ArialMT-32"/>
       <use xlink:href="#ArialMT-30" x="55.615234"/>
       <use xlink:href="#ArialMT-30" x="111.230469"/>
       <use xlink:href="#ArialMT-30" x="166.845703"/>
      </g>
     </g>
    </g>
    <g id="ytick_3">
     <g id="line2d_8">
      <path d="M 306.786329 225.895797 
C 325.741436 225.895797 344.512228 229.62954 362.024464 236.883345 
C 379.536699 244.137151 395.449809 254.769951 408.853093 268.173235 
C 422.256378 281.57652 432.889178 297.48963 440.142983 315.001865 
C 447.396789 332.5141 451.130532 351.284893 451.130532 370.24 
C 451.130532 389.195107 447.396789 407.9659 440.142983 425.478135 
C 432.889178 442.99037 422.256378 458.90348 408.853093 472.306765 
C 395.449809 485.710049 379.536699 496.342849 362.024464 503.596655 
C 344.512228 510.85046 325.741436 514.584203 306.786329 514.584203 
C 287.831222 514.584203 269.060429 510.85046 251.548194 503.596655 
C 234.035958 496.342849 218.122849 485.710049 204.719564 472.306765 
C 191.316279 458.90348 180.68348 442.99037 173.429674 425.478135 
C 166.175869 407.9659 162.442126 389.195107 162.442126 370.24 
C 162.442126 351.284893 166.175869 332.5141 173.429674 315.001865 
C 180.68348 297.48963 191.316279 281.57652 204.719564 268.173235 
C 218.122849 254.769951 234.035958 244.137151 251.548194 236.883345 
C 269.060429 229.62954 287.831222 225.895797 306.786329 225.895797 
" clip-path="url(#p7ace6529b2)" style="fill: none; stroke: #cccccc; stroke-width: 0.8; stroke-linecap: round"/>
     </g>
     <g id="text_8">
      <!-- 3000 -->
      <g transform="translate(408.853093 265.788235) scale(0.12 -0.12)">
       <defs>
        <path id="ArialMT-33" d="M 269 1209 
L 831 1284 
Q 928 806 1161 595 
Q 1394 384 1728 384 
Q 2125 384 2398 659 
Q 2672 934 2672 1341 
Q 2672 1728 2419 1979 
Q 2166 2231 1775 2231 
Q 1616 2231 1378 2169 
L 1441 2663 
Q 1497 2656 1531 2656 
Q 1891 2656 2178 2843 
Q 2466 3031 2466 3422 
Q 2466 3731 2256 3934 
Q 2047 4138 1716 4138 
Q 1388 4138 1169 3931 
Q 950 3725 888 3313 
L 325 3413 
Q 428 3978 793 4289 
Q 1159 4600 1703 4600 
Q 2078 4600 2393 4439 
Q 2709 4278 2876 4000 
Q 3044 3722 3044 3409 
Q 3044 3113 2884 2869 
Q 2725 2625 2413 2481 
Q 2819 2388 3044 2092 
Q 3269 1797 3269 1353 
Q 3269 753 2831 336 
Q 2394 -81 1725 -81 
Q 1122 -81 723 278 
Q 325 638 269 1209 
z
" transform="scale(0.015625)"/>
       </defs>
       <use xlink:href="#ArialMT-33"/>
       <use xlink:href="#ArialMT-30" x="55.615234"/>
       <use xlink:href="#ArialMT-30" x="111.230469"/>
       <use xlink:href="#ArialMT-30" x="166.845703"/>
      </g>
     </g>
    </g>
    <g id="ytick_4">
     <g id="line2d_9">
      <path d="M 306.786329 177.781063 
C 332.059805 177.781063 357.087528 182.759387 380.437175 192.431127 
C 403.786823 202.102868 425.004302 216.279934 442.875348 234.150981 
C 460.746395 252.022027 474.923461 273.239506 484.595201 296.589153 
C 494.266942 319.938801 499.245266 344.966524 499.245266 370.24 
C 499.245266 395.513476 494.266942 420.541199 484.595201 443.890847 
C 474.923461 467.240494 460.746395 488.457973 442.875348 506.329019 
C 425.004302 524.200066 403.786823 538.377132 380.437175 548.048873 
C 357.087528 557.720613 332.059805 562.698937 306.786329 562.698937 
C 281.512853 562.698937 256.485129 557.720613 233.135482 548.048873 
C 209.785835 538.377132 188.568356 524.200066 170.697309 506.329019 
C 152.826263 488.457973 138.649197 467.240494 128.977456 443.890847 
C 119.305715 420.541199 114.327392 395.513476 114.327392 370.24 
C 114.327392 344.966524 119.305715 319.938801 128.977456 296.589153 
C 138.649197 273.239506 152.826263 252.022027 170.697309 234.150981 
C 188.568356 216.279934 209.785835 202.102868 233.135482 192.431127 
C 256.485129 182.759387 281.512853 177.781063 306.786329 177.781063 
" clip-path="url(#p7ace6529b2)" style="fill: none; stroke: #cccccc; stroke-width: 0.8; stroke-linecap: round"/>
     </g>
     <g id="text_9">
      <!-- 4000 -->
      <g transform="translate(442.875348 231.765981) scale(0.12 -0.12)">
       <defs>
        <path id="ArialMT-34" d="M 2069 0 
L 2069 1097 
L 81 1097 
L 81 1613 
L 2172 4581 
L 2631 4581 
L 2631 1613 
L 3250 1613 
L 3250 1097 
L 2631 1097 
L 2631 0 
L 2069 0 
z
M 2069 1613 
L 2069 3678 
L 634 1613 
L 2069 1613 
z
" transform="scale(0.015625)"/>
       </defs>
       <use xlink:href="#ArialMT-34"/>
       <use xlink:href="#ArialMT-30" x="55.615234"/>
       <use xlink:href="#ArialMT-30" x="111.230469"/>
       <use xlink:href="#ArialMT-30" x="166.845703"/>
      </g>
     </g>
    </g>
    <g id="ytick_5">
     <g id="line2d_10">
      <path d="M 306.786329 129.666329 
C 338.378174 129.666329 369.662828 135.889233 398.849887 147.978909 
C 428.036946 160.068585 454.558795 177.789918 476.897603 200.128726 
C 499.236411 222.467534 516.957744 248.989383 529.04742 278.176442 
C 541.137095 307.363501 547.36 338.648155 547.36 370.24 
C 547.36 401.831845 541.137095 433.116499 529.04742 462.303558 
C 516.957744 491.490617 499.236411 518.012466 476.897603 540.351274 
C 454.558795 562.690082 428.036946 580.411415 398.849887 592.501091 
C 369.662828 604.590767 338.378174 610.813671 306.786329 610.813671 
C 275.194484 610.813671 243.90983 604.590767 214.722771 592.501091 
C 185.535711 580.411415 159.013862 562.690082 136.675054 540.351274 
C 114.336247 518.012466 96.614914 491.490617 84.525238 462.303558 
C 72.435562 433.116499 66.212658 401.831845 66.212658 370.24 
C 66.212658 338.648155 72.435562 307.363501 84.525238 278.176442 
C 96.614914 248.989383 114.336247 222.467534 136.675054 200.128726 
C 159.013862 177.789918 185.535711 160.068585 214.722771 147.978909 
C 243.90983 135.889233 275.194484 129.666329 306.786329 129.666329 
" clip-path="url(#p7ace6529b2)" style="fill: none; stroke: #cccccc; stroke-width: 0.8; stroke-linecap: round"/>
     </g>
     <g id="text_10">
      <!-- 5000 -->
      <g transform="translate(476.897603 197.743726) scale(0.12 -0.12)">
       <defs>
        <path id="ArialMT-35" d="M 266 1200 
L 856 1250 
Q 922 819 1161 601 
Q 1400 384 1738 384 
Q 2144 384 2425 690 
Q 2706 997 2706 1503 
Q 2706 1984 2436 2262 
Q 2166 2541 1728 2541 
Q 1456 2541 1237 2417 
Q 1019 2294 894 2097 
L 366 2166 
L 809 4519 
L 3088 4519 
L 3088 3981 
L 1259 3981 
L 1013 2750 
Q 1425 3038 1878 3038 
Q 2478 3038 2890 2622 
Q 3303 2206 3303 1553 
Q 3303 931 2941 478 
Q 2500 -78 1738 -78 
Q 1113 -78 717 272 
Q 322 622 266 1200 
z
" transform="scale(0.015625)"/>
       </defs>
       <use xlink:href="#ArialMT-35"/>
       <use xlink:href="#ArialMT-30" x="55.615234"/>
       <use xlink:href="#ArialMT-30" x="111.230469"/>
       <use xlink:href="#ArialMT-30" x="166.845703"/>
      </g>
     </g>
    </g>
    <g id="text_11">
     <!-- Rozloha (ha)  -->
     <g style="fill: #262626" transform="translate(29.650845 412.2575) rotate(-90) scale(0.14 -0.14)">
      <defs>
       <path id="ArialMT-52" d="M 503 0 
L 503 4581 
L 2534 4581 
Q 3147 4581 3465 4457 
Q 3784 4334 3975 4021 
Q 4166 3709 4166 3331 
Q 4166 2844 3850 2509 
Q 3534 2175 2875 2084 
Q 3116 1969 3241 1856 
Q 3506 1613 3744 1247 
L 4541 0 
L 3778 0 
L 3172 953 
Q 2906 1366 2734 1584 
Q 2563 1803 2427 1890 
Q 2291 1978 2150 2013 
Q 2047 2034 1813 2034 
L 1109 2034 
L 1109 0 
L 503 0 
z
M 1109 2559 
L 2413 2559 
Q 2828 2559 3062 2645 
Q 3297 2731 3419 2920 
Q 3541 3109 3541 3331 
Q 3541 3656 3305 3865 
Q 3069 4075 2559 4075 
L 1109 4075 
L 1109 2559 
z
" transform="scale(0.015625)"/>
       <path id="ArialMT-68" d="M 422 0 
L 422 4581 
L 984 4581 
L 984 2938 
Q 1378 3394 1978 3394 
Q 2347 3394 2619 3248 
Q 2891 3103 3008 2847 
Q 3125 2591 3125 2103 
L 3125 0 
L 2563 0 
L 2563 2103 
Q 2563 2525 2380 2717 
Q 2197 2909 1863 2909 
Q 1613 2909 1392 2779 
Q 1172 2650 1078 2428 
Q 984 2206 984 1816 
L 984 0 
L 422 0 
z
" transform="scale(0.015625)"/>
       <path id="ArialMT-28" d="M 1497 -1347 
Q 1031 -759 709 28 
Q 388 816 388 1659 
Q 388 2403 628 3084 
Q 909 3875 1497 4659 
L 1900 4659 
Q 1522 4009 1400 3731 
Q 1209 3300 1100 2831 
Q 966 2247 966 1656 
Q 966 153 1900 -1347 
L 1497 -1347 
z
" transform="scale(0.015625)"/>
       <path id="ArialMT-29" d="M 791 -1347 
L 388 -1347 
Q 1322 153 1322 1656 
Q 1322 2244 1188 2822 
Q 1081 3291 891 3722 
Q 769 4003 388 4659 
L 791 4659 
Q 1378 3875 1659 3084 
Q 1900 2403 1900 1659 
Q 1900 816 1576 28 
Q 1253 -759 791 -1347 
z
" transform="scale(0.015625)"/>
      </defs>
      <use xlink:href="#ArialMT-52"/>
      <use xlink:href="#ArialMT-6f" x="72.216797"/>
      <use xlink:href="#ArialMT-7a" x="127.832031"/>
      <use xlink:href="#ArialMT-6c" x="177.832031"/>
      <use xlink:href="#ArialMT-6f" x="200.048828"/>
      <use xlink:href="#ArialMT-68" x="255.664062"/>
      <use xlink:href="#ArialMT-61" x="311.279297"/>
      <use xlink:href="#ArialMT-20" x="366.894531"/>
      <use xlink:href="#ArialMT-28" x="394.677734"/>
      <use xlink:href="#ArialMT-68" x="427.978516"/>
      <use xlink:href="#ArialMT-61" x="483.59375"/>
      <use xlink:href="#ArialMT-29" x="539.208984"/>
      <use xlink:href="#ArialMT-20" x="572.509766"/>
     </g>
     <!--  min. 157 ha,  -->
     <g style="fill: #262626" transform="translate(44.622533 412.650156) rotate(-90) scale(0.14 -0.14)">
      <defs>
       <path id="ArialMT-2e" d="M 581 0 
L 581 641 
L 1222 641 
L 1222 0 
L 581 0 
z
" transform="scale(0.015625)"/>
       <path id="ArialMT-37" d="M 303 3981 
L 303 4522 
L 3269 4522 
L 3269 4084 
Q 2831 3619 2401 2847 
Q 1972 2075 1738 1259 
Q 1569 684 1522 0 
L 944 0 
Q 953 541 1156 1306 
Q 1359 2072 1739 2783 
Q 2119 3494 2547 3981 
L 303 3981 
z
" transform="scale(0.015625)"/>
       <path id="ArialMT-2c" d="M 569 0 
L 569 641 
L 1209 641 
L 1209 0 
Q 1209 -353 1084 -570 
Q 959 -788 688 -906 
L 531 -666 
Q 709 -588 793 -436 
Q 878 -284 888 0 
L 569 0 
z
" transform="scale(0.015625)"/>
      </defs>
      <use xlink:href="#ArialMT-20"/>
      <use xlink:href="#ArialMT-6d" x="27.783203"/>
      <use xlink:href="#ArialMT-69" x="111.083984"/>
      <use xlink:href="#ArialMT-6e" x="133.300781"/>
      <use xlink:href="#ArialMT-2e" x="188.916016"/>
      <use xlink:href="#ArialMT-20" x="216.699219"/>
      <use xlink:href="#ArialMT-31" x="244.482422"/>
      <use xlink:href="#ArialMT-35" x="300.097656"/>
      <use xlink:href="#ArialMT-37" x="355.712891"/>
      <use xlink:href="#ArialMT-20" x="411.328125"/>
      <use xlink:href="#ArialMT-68" x="439.111328"/>
      <use xlink:href="#ArialMT-61" x="494.726562"/>
      <use xlink:href="#ArialMT-2c" x="550.341797"/>
      <use xlink:href="#ArialMT-20" x="578.125"/>
     </g>
     <!-- max. 4296 ha -->
     <g style="fill: #262626" transform="translate(59.430158 412.653437) rotate(-90) scale(0.14 -0.14)">
      <defs>
       <path id="ArialMT-78" d="M 47 0 
L 1259 1725 
L 138 3319 
L 841 3319 
L 1350 2541 
Q 1494 2319 1581 2169 
Q 1719 2375 1834 2534 
L 2394 3319 
L 3066 3319 
L 1919 1756 
L 3153 0 
L 2463 0 
L 1781 1031 
L 1600 1309 
L 728 0 
L 47 0 
z
" transform="scale(0.015625)"/>
       <path id="ArialMT-39" d="M 350 1059 
L 891 1109 
Q 959 728 1153 556 
Q 1347 384 1650 384 
Q 1909 384 2104 503 
Q 2300 622 2425 820 
Q 2550 1019 2634 1356 
Q 2719 1694 2719 2044 
Q 2719 2081 2716 2156 
Q 2547 1888 2255 1720 
Q 1963 1553 1622 1553 
Q 1053 1553 659 1965 
Q 266 2378 266 3053 
Q 266 3750 677 4175 
Q 1088 4600 1706 4600 
Q 2153 4600 2523 4359 
Q 2894 4119 3086 3673 
Q 3278 3228 3278 2384 
Q 3278 1506 3087 986 
Q 2897 466 2520 194 
Q 2144 -78 1638 -78 
Q 1100 -78 759 220 
Q 419 519 350 1059 
z
M 2653 3081 
Q 2653 3566 2395 3850 
Q 2138 4134 1775 4134 
Q 1400 4134 1122 3828 
Q 844 3522 844 3034 
Q 844 2597 1108 2323 
Q 1372 2050 1759 2050 
Q 2150 2050 2401 2323 
Q 2653 2597 2653 3081 
z
" transform="scale(0.015625)"/>
       <path id="ArialMT-36" d="M 3184 3459 
L 2625 3416 
Q 2550 3747 2413 3897 
Q 2184 4138 1850 4138 
Q 1581 4138 1378 3988 
Q 1113 3794 959 3422 
Q 806 3050 800 2363 
Q 1003 2672 1297 2822 
Q 1591 2972 1913 2972 
Q 2475 2972 2870 2558 
Q 3266 2144 3266 1488 
Q 3266 1056 3080 686 
Q 2894 316 2569 119 
Q 2244 -78 1831 -78 
Q 1128 -78 684 439 
Q 241 956 241 2144 
Q 241 3472 731 4075 
Q 1159 4600 1884 4600 
Q 2425 4600 2770 4297 
Q 3116 3994 3184 3459 
z
M 888 1484 
Q 888 1194 1011 928 
Q 1134 663 1356 523 
Q 1578 384 1822 384 
Q 2178 384 2434 671 
Q 2691 959 2691 1453 
Q 2691 1928 2437 2201 
Q 2184 2475 1800 2475 
Q 1419 2475 1153 2201 
Q 888 1928 888 1484 
z
" transform="scale(0.015625)"/>
      </defs>
      <use xlink:href="#ArialMT-6d"/>
      <use xlink:href="#ArialMT-61" x="83.300781"/>
      <use xlink:href="#ArialMT-78" x="138.916016"/>
      <use xlink:href="#ArialMT-2e" x="188.916016"/>
      <use xlink:href="#ArialMT-20" x="216.699219"/>
      <use xlink:href="#ArialMT-34" x="244.482422"/>
      <use xlink:href="#ArialMT-32" x="300.097656"/>
      <use xlink:href="#ArialMT-39" x="355.712891"/>
      <use xlink:href="#ArialMT-36" x="411.328125"/>
      <use xlink:href="#ArialMT-20" x="466.943359"/>
      <use xlink:href="#ArialMT-68" x="494.726562"/>
      <use xlink:href="#ArialMT-61" x="550.341797"/>
     </g>
    </g>
   </g>
   <g id="line2d_11">
    <path d="M 306.786329 326.118789 
L 324.815702 364.381901 
L 310.491157 375.339259 
L 237.780369 465.218556 
L 294.431174 366.225567 
L 306.786329 326.118789 
" clip-path="url(#p7ace6529b2)" style="fill: none; stroke: #2ecc71; stroke-width: 2; stroke-linecap: round"/>
    <defs>
     <path id="m0a20e34534" d="M 0 3 
C 0.795609 3 1.55874 2.683901 2.12132 2.12132 
C 2.683901 1.55874 3 0.795609 3 0 
C 3 -0.795609 2.683901 -1.55874 2.12132 -2.12132 
C 1.55874 -2.683901 0.795609 -3 0 -3 
C -0.795609 -3 -1.55874 -2.683901 -2.12132 -2.12132 
C -2.683901 -1.55874 -3 -0.795609 -3 0 
C -3 0.795609 -2.683901 1.55874 -2.12132 2.12132 
C -1.55874 2.683901 -0.795609 3 0 3 
z
" style="stroke: #2ecc71"/>
    </defs>
    <g clip-path="url(#p7ace6529b2)">
     <use xlink:href="#m0a20e34534" x="306.786329" y="326.118789" style="fill: #2ecc71; stroke: #2ecc71"/>
     <use xlink:href="#m0a20e34534" x="324.815702" y="364.381901" style="fill: #2ecc71; stroke: #2ecc71"/>
     <use xlink:href="#m0a20e34534" x="310.491157" y="375.339259" style="fill: #2ecc71; stroke: #2ecc71"/>
     <use xlink:href="#m0a20e34534" x="237.780369" y="465.218556" style="fill: #2ecc71; stroke: #2ecc71"/>
     <use xlink:href="#m0a20e34534" x="294.431174" y="366.225567" style="fill: #2ecc71; stroke: #2ecc71"/>
     <use xlink:href="#m0a20e34534" x="306.786329" y="326.118789" style="fill: #2ecc71; stroke: #2ecc71"/>
    </g>
   </g>
   <g id="line2d_12">
    <path d="M 306.786329 267.322583 
L 340.419805 359.311821 
L 322.482357 391.843729 
L 255.738887 440.500776 
L 292.280462 365.526758 
L 306.786329 267.322583 
" clip-path="url(#p7ace6529b2)" style="fill: none; stroke: #ffcc00; stroke-width: 2; stroke-linecap: round"/>
    <defs>
     <path id="mccaf833abd" d="M 0 3 
C 0.795609 3 1.55874 2.683901 2.12132 2.12132 
C 2.683901 1.55874 3 0.795609 3 0 
C 3 -0.795609 2.683901 -1.55874 2.12132 -2.12132 
C 1.55874 -2.683901 0.795609 -3 0 -3 
C -0.795609 -3 -1.55874 -2.683901 -2.12132 -2.12132 
C -2.683901 -1.55874 -3 -0.795609 -3 0 
C -3 0.795609 -2.683901 1.55874 -2.12132 2.12132 
C -1.55874 2.683901 -0.795609 3 0 3 
z
" style="stroke: #ffcc00"/>
    </defs>
    <g clip-path="url(#p7ace6529b2)">
     <use xlink:href="#mccaf833abd" x="306.786329" y="267.322583" style="fill: #ffcc00; stroke: #ffcc00"/>
     <use xlink:href="#mccaf833abd" x="340.419805" y="359.311821" style="fill: #ffcc00; stroke: #ffcc00"/>
     <use xlink:href="#mccaf833abd" x="322.482357" y="391.843729" style="fill: #ffcc00; stroke: #ffcc00"/>
     <use xlink:href="#mccaf833abd" x="255.738887" y="440.500776" style="fill: #ffcc00; stroke: #ffcc00"/>
     <use xlink:href="#mccaf833abd" x="292.280462" y="365.526758" style="fill: #ffcc00; stroke: #ffcc00"/>
     <use xlink:href="#mccaf833abd" x="306.786329" y="267.322583" style="fill: #ffcc00; stroke: #ffcc00"/>
    </g>
   </g>
   <g id="line2d_13">
    <path d="M 306.786329 163.539102 
L 378.125906 347.060366 
L 331.956536 404.883818 
L 289.874212 393.517531 
L 299.602035 367.905682 
L 306.786329 163.539102 
" clip-path="url(#p7ace6529b2)" style="fill: none; stroke: #e74c3c; stroke-width: 2; stroke-linecap: round"/>
    <defs>
     <path id="m75700fb24e" d="M 0 3 
C 0.795609 3 1.55874 2.683901 2.12132 2.12132 
C 2.683901 1.55874 3 0.795609 3 0 
C 3 -0.795609 2.683901 -1.55874 2.12132 -2.12132 
C 1.55874 -2.683901 0.795609 -3 0 -3 
C -0.795609 -3 -1.55874 -2.683901 -2.12132 -2.12132 
C -2.683901 -1.55874 -3 -0.795609 -3 0 
C -3 0.795609 -2.683901 1.55874 -2.12132 2.12132 
C -1.55874 2.683901 -0.795609 3 0 3 
z
" style="stroke: #e74c3c"/>
    </defs>
    <g clip-path="url(#p7ace6529b2)">
     <use xlink:href="#m75700fb24e" x="306.786329" y="163.539102" style="fill: #e74c3c; stroke: #e74c3c"/>
     <use xlink:href="#m75700fb24e" x="378.125906" y="347.060366" style="fill: #e74c3c; stroke: #e74c3c"/>
     <use xlink:href="#m75700fb24e" x="331.956536" y="404.883818" style="fill: #e74c3c; stroke: #e74c3c"/>
     <use xlink:href="#m75700fb24e" x="289.874212" y="393.517531" style="fill: #e74c3c; stroke: #e74c3c"/>
     <use xlink:href="#m75700fb24e" x="299.602035" y="367.905682" style="fill: #e74c3c; stroke: #e74c3c"/>
     <use xlink:href="#m75700fb24e" x="306.786329" y="163.539102" style="fill: #e74c3c; stroke: #e74c3c"/>
    </g>
   </g>
   <g id="legend_1">
    <g id="patch_3">
     <path d="M 522.737328 201.048829 
L 681.904203 201.048829 
Q 684.704203 201.048829 684.704203 198.248829 
L 684.704203 139.466329 
Q 684.704203 136.666329 681.904203 136.666329 
L 522.737328 136.666329 
Q 519.937328 136.666329 519.937328 139.466329 
L 519.937328 198.248829 
Q 519.937328 201.048829 522.737328 201.048829 
z
" style="fill: #ffffff; opacity: 0.8; stroke: #cccccc; stroke-linejoin: miter"/>
    </g>
    <g id="line2d_14">
     <path d="M 525.537328 147.441954 
L 539.537328 147.441954 
L 553.537328 147.441954 
" style="fill: none; stroke: #2ecc71; stroke-width: 2; stroke-linecap: round"/>
     <g>
      <use xlink:href="#m0a20e34534" x="539.537328" y="147.441954" style="fill: #2ecc71; stroke: #2ecc71"/>
     </g>
    </g>
    <g id="text_12">
     <!-- Udržateľnosť -->
     <g style="fill: #262626" transform="translate(564.737328 152.341954) scale(0.14 -0.14)">
      <defs>
       <path id="ArialMT-55" d="M 3500 4581 
L 4106 4581 
L 4106 1934 
Q 4106 1244 3950 837 
Q 3794 431 3386 176 
Q 2978 -78 2316 -78 
Q 1672 -78 1262 144 
Q 853 366 678 786 
Q 503 1206 503 1934 
L 503 4581 
L 1109 4581 
L 1109 1938 
Q 1109 1341 1220 1058 
Q 1331 775 1601 622 
Q 1872 469 2263 469 
Q 2931 469 3215 772 
Q 3500 1075 3500 1938 
L 3500 4581 
z
" transform="scale(0.015625)"/>
       <path id="ArialMT-64" d="M 2575 0 
L 2575 419 
Q 2259 -75 1647 -75 
Q 1250 -75 917 144 
Q 584 363 401 755 
Q 219 1147 219 1656 
Q 219 2153 384 2558 
Q 550 2963 881 3178 
Q 1213 3394 1622 3394 
Q 1922 3394 2156 3267 
Q 2391 3141 2538 2938 
L 2538 4581 
L 3097 4581 
L 3097 0 
L 2575 0 
z
M 797 1656 
Q 797 1019 1065 703 
Q 1334 388 1700 388 
Q 2069 388 2326 689 
Q 2584 991 2584 1609 
Q 2584 2291 2321 2609 
Q 2059 2928 1675 2928 
Q 1300 2928 1048 2622 
Q 797 2316 797 1656 
z
" transform="scale(0.015625)"/>
       <path id="ArialMT-17e" d="M 125 0 
L 125 456 
L 2238 2881 
Q 1878 2863 1603 2863 
L 250 2863 
L 250 3319 
L 2963 3319 
L 2963 2947 
L 1166 841 
L 819 456 
Q 1197 484 1528 484 
L 3063 484 
L 3063 0 
L 125 0 
z
M 1697 4075 
L 2041 4606 
L 2678 4606 
L 1975 3731 
L 1375 3731 
L 700 4606 
L 1344 4606 
L 1697 4075 
z
" transform="scale(0.015625)"/>
      </defs>
      <use xlink:href="#ArialMT-55"/>
      <use xlink:href="#ArialMT-64" x="72.216797"/>
      <use xlink:href="#ArialMT-72" x="127.832031"/>
      <use xlink:href="#ArialMT-17e" x="161.132812"/>
      <use xlink:href="#ArialMT-61" x="211.132812"/>
      <use xlink:href="#ArialMT-74" x="266.748047"/>
      <use xlink:href="#ArialMT-65" x="294.53125"/>
      <use xlink:href="#ArialMT-13e" x="350.146484"/>
      <use xlink:href="#ArialMT-6e" x="379.296875"/>
      <use xlink:href="#ArialMT-fd" x="434.912109"/>
      <use xlink:href="#ArialMT-20" x="484.912109"/>
      <use xlink:href="#ArialMT-72" x="512.695312"/>
      <use xlink:href="#ArialMT-6f" x="545.996094"/>
      <use xlink:href="#ArialMT-7a" x="601.611328"/>
      <use xlink:href="#ArialMT-76" x="651.611328"/>
      <use xlink:href="#ArialMT-6f" x="701.611328"/>
      <use xlink:href="#ArialMT-6a" x="757.226562"/>
     </g>
    </g>
    <g id="line2d_15">
     <path d="M 525.537328 167.580079 
L 539.537328 167.580079 
L 553.537328 167.580079 
" style="fill: none; stroke: #ffcc00; stroke-width: 2; stroke-linecap: round"/>
     <g>
      <use xlink:href="#mccaf833abd" x="539.537328" y="167.580079" style="fill: #ffcc00; stroke: #ffcc00"/>
     </g>
    </g>
    <g id="text_13">
     <!-- Pokračovanie súčasných trendov -->
     <g style="fill: #262626" transform="translate(564.737328 172.480079) scale(0.14 -0.14)">
      <defs>
       <path id="ArialMT-66" d="M 556 0 
L 556 2881 
L 59 2881 
L 59 3319 
L 556 3319 
L 556 3672 
Q 556 4006 616 4169 
Q 697 4388 901 4523 
Q 1106 4659 1475 4659 
Q 1713 4659 2000 4603 
L 1916 4113 
Q 1741 4144 1584 4144 
Q 1328 4144 1222 4034 
Q 1116 3925 1116 3625 
L 1116 3319 
L 1763 3319 
L 1763 2881 
L 1116 2881 
L 1116 0 
L 556 0 
z
" transform="scale(0.015625)"/>
      </defs>
      <use xlink:href="#ArialMT-52"/>
      <use xlink:href="#ArialMT-65" x="72.216797"/>
      <use xlink:href="#ArialMT-66" x="127.832031"/>
      <use xlink:href="#ArialMT-65" x="155.615234"/>
      <use xlink:href="#ArialMT-72" x="211.230469"/>
      <use xlink:href="#ArialMT-65" x="244.53125"/>
      <use xlink:href="#ArialMT-6e" x="300.146484"/>
      <use xlink:href="#ArialMT-10d" x="355.761719"/>
      <use xlink:href="#ArialMT-6e" x="405.761719"/>
      <use xlink:href="#ArialMT-fd" x="461.376953"/>
      <use xlink:href="#ArialMT-20" x="511.376953"/>
      <use xlink:href="#ArialMT-72" x="539.160156"/>
      <use xlink:href="#ArialMT-6f" x="572.460938"/>
      <use xlink:href="#ArialMT-7a" x="628.076172"/>
      <use xlink:href="#ArialMT-76" x="678.076172"/>
      <use xlink:href="#ArialMT-6f" x="728.076172"/>
      <use xlink:href="#ArialMT-6a" x="783.691406"/>
     </g>
    </g>
    <g id="line2d_16">
     <path d="M 525.537328 187.602266 
L 539.537328 187.602266 
L 553.537328 187.602266 
" style="fill: none; stroke: #e74c3c; stroke-width: 2; stroke-linecap: round"/>
     <g>
      <use xlink:href="#m75700fb24e" x="539.537328" y="187.602266" style="fill: #e74c3c; stroke: #e74c3c"/>
     </g>
    </g>
    <g id="text_14">
     <!-- Pesimistická budúcnosť -->
     <g style="fill: #262626" transform="translate(564.737328 192.502266) scale(0.14 -0.14)">
      <defs>
       <path id="ArialMT-4e" d="M 488 0 
L 488 4581 
L 1109 4581 
L 3516 984 
L 3516 4581 
L 4097 4581 
L 4097 0 
L 3475 0 
L 1069 3600 
L 1069 0 
L 488 0 
z
" transform="scale(0.015625)"/>
      </defs>
      <use xlink:href="#ArialMT-4e"/>
      <use xlink:href="#ArialMT-65" x="72.216797"/>
      <use xlink:href="#ArialMT-70" x="127.832031"/>
      <use xlink:href="#ArialMT-72" x="183.447266"/>
      <use xlink:href="#ArialMT-69" x="216.748047"/>
      <use xlink:href="#ArialMT-61" x="238.964844"/>
      <use xlink:href="#ArialMT-7a" x="294.580078"/>
      <use xlink:href="#ArialMT-6e" x="344.580078"/>
      <use xlink:href="#ArialMT-69" x="400.195312"/>
      <use xlink:href="#ArialMT-76" x="422.412109"/>
      <use xlink:href="#ArialMT-fd" x="472.412109"/>
      <use xlink:href="#ArialMT-20" x="522.412109"/>
      <use xlink:href="#ArialMT-72" x="550.195312"/>
      <use xlink:href="#ArialMT-6f" x="583.496094"/>
      <use xlink:href="#ArialMT-7a" x="639.111328"/>
      <use xlink:href="#ArialMT-76" x="689.111328"/>
      <use xlink:href="#ArialMT-6f" x="739.111328"/>
      <use xlink:href="#ArialMT-6a" x="794.726562"/>
     </g>
    </g>
   </g>
  </g>
 </g>
 <defs>
  <clipPath id="p7ace6529b2">
   <path d="M 547.36 370.24 
C 547.36 338.648155 541.137095 307.363501 529.04742 278.176442 
C 516.957744 248.989383 499.236411 222.467534 476.897603 200.128726 
C 454.558795 177.789918 428.036946 160.068585 398.849887 147.978909 
C 369.662828 135.889233 338.378174 129.666329 306.786329 129.666329 
C 275.194484 129.666329 243.90983 135.889233 214.722771 147.978909 
C 185.535711 160.068585 159.013862 177.789918 136.675054 200.128726 
C 114.336247 222.467534 96.614914 248.989383 84.525238 278.176442 
C 72.435562 307.363501 66.212658 338.648155 66.212658 370.24 
C 66.212658 401.831845 72.435562 433.116499 84.525238 462.303558 
C 96.614914 491.490617 114.336247 518.012466 136.675054 540.351274 
C 159.013862 562.690082 185.535711 580.411415 214.722771 592.501091 
C 243.90983 604.590767 275.194484 610.813671 306.786329 610.813671 
C 338.378174 610.813671 369.662828 604.590767 398.849887 592.501091 
C 428.036946 580.411415 454.558795 562.690082 476.897603 540.351274 
C 499.236411 518.012466 516.957744 491.490617 529.04742 462.303558 
C 541.137095 433.116499 547.36 401.831845 547.36 370.24 
M 306.786329 370.24 
C 306.786329 370.24 306.786329 370.24 306.786329 370.24 
C 306.786329 370.24 306.786329 370.24 306.786329 370.24 
C 306.786329 370.24 306.786329 370.24 306.786329 370.24 
C 306.786329 370.24 306.786329 370.24 306.786329 370.24 
C 306.786329 370.24 306.786329 370.24 306.786329 370.24 
C 306.786329 370.24 306.786329 370.24 306.786329 370.24 
C 306.786329 370.24 306.786329 370.24 306.786329 370.24 
C 306.786329 370.24 306.786329 370.24 306.786329 370.24 
C 306.786329 370.24 306.786329 370.24 306.786329 370.24 
C 306.786329 370.24 306.786329 370.24 306.786329 370.24 
C 306.786329 370.24 306.786329 370.24 306.786329 370.24 
C 306.786329 370.24 306.786329 370.24 306.786329 370.24 
C 306.786329 370.24 306.786329 370.24 306.786329 370.24 
C 306.786329 370.24 306.786329 370.24 306.786329 370.24 
C 306.786329 370.24 306.786329 370.24 306.786329 370.24 
C 306.786329 370.24 306.786329 370.24 306.786329 370.24 
z
"/>
  </clipPath>
 </defs>
</svg>
